<svg xmlns="http://www.w3.org/2000/svg" viewBox="0 0 512 512"><defs><style>.b{fill:#333}</style></defs><rect width="512" height="512" rx="256" ry="256" style="fill:#fff"/><path class="b" d="M123.06 368.03c-17.02 0-29.08-16.9-23.82-33.36l43.8-137.17c3.35-10.5 12.97-17.61 23.82-17.61 17.02 0 29.08 16.9 23.82 33.36l-43.8 137.17c-3.35 10.5-12.97 17.61-23.82 17.61Z"/><path d="M321.4 107.35c-11.12 0-21.19 6.66-25.72 16.99l-64.61 147.67-23.31-53.29s-.02.11-.04.16l-25.95 81.28 22.53 51.49c4.52 10.33 14.6 16.99 25.72 16.99.36 0 .71-.02 1.07-.03.35.01.7.03 1.06.03 11.12 0 21.19-6.66 25.72-16.99l89.26-204.02c8.29-18.95-5.34-40.3-25.72-40.3Z" style="fill:#1572eb"/><path class="b" d="m416.76 334.66-55.63-174.2-30.45 69.59 38.43 120.36c3.35 10.5 12.97 17.61 23.82 17.61 17.02 0 29.08-16.89 23.82-33.36Z"/></svg>