<svg xmlns="http://www.w3.org/2000/svg" viewBox="0 0 288.03 232.09"><path d="M25.94 232.09c-8.29 0-15.88-3.88-20.82-10.63-5.05-6.92-6.45-15.58-3.84-23.77L39.6 77.67c3.47-10.88 13.38-18.19 24.65-18.19 8.29 0 15.88 3.88 20.82 10.64 5.05 6.92 6.45 15.58 3.84 23.77L50.59 213.91c-3.48 10.88-13.38 18.19-24.65 18.19ZM64.26 67.47c-7.78 0-14.62 5.07-17.03 12.63L8.91 200.12c-1.83 5.73-.85 11.79 2.68 16.62 3.41 4.67 8.65 7.35 14.36 7.35 7.78 0 14.62-5.07 17.03-12.63L81.3 91.44c1.83-5.73.86-11.79-2.67-16.62-3.41-4.67-8.65-7.35-14.36-7.35ZM199.49 0c-9.73 0-18.55 5.83-22.5 14.87l-56.53 129.21-20.4-46.63s-.02.09-.04.14l-22.71 71.12 19.71 45.06c3.96 9.04 12.77 14.87 22.5 14.87.31 0 .62-.02.93-.03.31.01.61.03.92.03 9.73 0 18.55-5.83 22.5-14.87l78.12-178.51C229.24 18.68 217.32 0 199.49 0ZM262.08 232.09c-11.27 0-21.18-7.31-24.65-18.19L203.8 108.58c-.3-.93-.24-1.93.15-2.82l26.64-60.89c.67-1.52 2.2-2.46 3.87-2.39 1.66.09 3.1 1.19 3.6 2.78l48.67 152.43c2.62 8.19 1.22 16.86-3.84 23.77-4.94 6.76-12.52 10.64-20.82 10.64Zm-50.2-124.51 33.17 103.88c2.41 7.55 9.26 12.63 17.03 12.63 5.71 0 10.94-2.68 14.36-7.35 3.53-4.83 4.5-10.89 2.67-16.62L233.66 57.79l-21.79 49.8Z"/></svg>