<svg xmlns="http://www.w3.org/2000/svg" viewBox="0 0 280 228.64"><defs><style>.a{fill:#333}.b{fill:#1572eb}#d:target .a{fill:#fff} #sl:target :is(.a,.b){fill:#000} #sd:target :is(.a,.b){fill:#fff}</style></defs><g id="d"><g id="sl"><g id="sd"><path class="a" d="m21.93,228.09h0c-14.89,0-25.44-14.78-20.84-29.19l38.32-120.02c2.93-9.19,11.35-15.41,20.84-15.41h0c14.89,0,25.44,14.78,20.84,29.19l-38.32,120.02c-2.93,9.19-11.35,15.41-20.84,15.41Z"/><path class="b" d="m195.48,0c-9.73,0-18.55,5.83-22.5,14.87l-56.53,129.21-20.4-46.63s-.02.09-.04.14l-22.71,71.12,19.71,45.06c3.96,9.04,12.77,14.87,22.5,14.87.31,0,.62-.02.93-.03.31.01.61.03.92.03h0c9.73,0,18.55-5.83,22.5-14.87L217.98,35.26c7.25-16.58-4.67-35.26-22.5-35.26Z"/><path class="a" d="m278.91,198.9l-48.67-152.43-26.64,60.89,33.63,105.32c2.93,9.19,11.35,15.41,20.84,15.41h0c14.89,0,25.44-14.78,20.84-29.19Z"/></g></g></g></svg>