<svg xmlns="http://www.w3.org/2000/svg" viewBox="0 0 284.02 230.09"><path d="M23.94 230.09c-7.65 0-14.65-3.58-19.2-9.81-4.67-6.4-5.96-14.41-3.55-21.99L39.51 78.27c3.21-10.05 12.35-16.8 22.75-16.8 7.65 0 14.65 3.58 19.2 9.82 4.67 6.4 5.96 14.41 3.54 21.99L46.68 213.3c-3.21 10.05-12.35 16.8-22.75 16.8ZM62.27 65.47c-8.65 0-16.26 5.63-18.94 14.02L5 199.51c-2.03 6.35-.95 13.06 2.97 18.41 3.79 5.19 9.62 8.17 15.97 8.17 8.65 0 16.26-5.63 18.94-14.02L81.2 92.05c2.03-6.35.95-13.05-2.96-18.41-3.79-5.2-9.62-8.17-15.97-8.17ZM197.49 0c-9.73 0-18.55 5.83-22.5 14.87l-56.53 129.21-20.4-46.63s-.02.09-.04.14l-22.71 71.12 19.71 45.06c3.96 9.04 12.77 14.87 22.5 14.87.31 0 .62-.02.93-.03.31.01.61.03.92.03 9.73 0 18.55-5.83 22.5-14.87l78.12-178.51C227.24 18.68 215.32 0 197.49 0ZM260.08 230.09c-10.4 0-19.54-6.75-22.75-16.8L203.7 107.97c-.15-.46-.12-.96.07-1.41l26.64-60.89c.33-.76 1.11-1.24 1.94-1.2.83.04 1.55.6 1.8 1.39l48.67 152.43c2.42 7.58 1.13 15.59-3.54 21.99-4.56 6.24-11.56 9.82-19.2 9.82Zm-52.34-122.62 33.4 104.6c2.68 8.38 10.29 14.02 18.94 14.02 6.36 0 12.18-2.98 15.97-8.17 3.91-5.35 4.99-12.06 2.96-18.41L231.95 52.13l-24.21 55.35Z"/></svg>