<svg xmlns="http://www.w3.org/2000/svg" viewBox="0 0 286.02 231.09"><path d="M24.94 231.09c-7.97 0-15.26-3.73-20.01-10.22-4.86-6.66-6.21-15-3.69-22.88L39.56 77.97c3.34-10.47 12.87-17.5 23.7-17.5 7.97 0 15.26 3.73 20.01 10.23 4.86 6.66 6.21 15 3.69 22.88L48.64 213.6c-3.34 10.47-12.87 17.5-23.7 17.5ZM63.27 66.47c-8.21 0-15.44 5.35-17.99 13.32L6.96 199.81c-1.93 6.04-.9 12.42 2.82 17.52 3.6 4.93 9.13 7.76 15.16 7.76 8.21 0 15.44-5.35 17.99-13.32L81.25 91.75c1.93-6.04.9-12.42-2.82-17.52-3.6-4.93-9.13-7.76-15.16-7.76ZM198.49 0c-9.73 0-18.55 5.83-22.5 14.87l-56.53 129.21-20.4-46.63s-.02.09-.04.14l-22.71 71.12 19.71 45.06c3.96 9.04 12.77 14.87 22.5 14.87.31 0 .62-.02.93-.03.31.01.61.03.92.03 9.73 0 18.55-5.83 22.5-14.87l78.12-178.51C228.24 18.68 216.32 0 198.49 0ZM261.08 231.09c-10.83 0-20.36-7.03-23.7-17.5l-33.63-105.32c-.22-.69-.18-1.45.11-2.11l26.64-60.89c.5-1.14 1.65-1.86 2.9-1.79 1.25.06 2.32.89 2.7 2.08l48.67 152.43c2.52 7.88 1.17 16.22-3.69 22.88-4.75 6.5-12.04 10.23-20.01 10.23Zm-51.27-123.56 33.28 104.24c2.54 7.97 9.77 13.32 17.99 13.32 6.03 0 11.56-2.83 15.17-7.76 3.72-5.09 4.75-11.48 2.82-17.51S232.82 54.96 232.82 54.96l-23 52.57Z"/></svg>