<svg width="388" height="547" fill="none" xmlns="http://www.w3.org/2000/svg"><style>.a{fill:#1584EB}.b{stroke:#1584EB}</style><g opacity=".3"><path d="M140.244 486.504a3.894 3.894 0 0 0 5.259 1.57l27.286-14.65a3.85 3.85 0 0 0 1.563-5.234l-14.783-27.214a3.893 3.893 0 0 0-5.258-1.571 3.848 3.848 0 0 0-1.563 5.233l12.935 23.813-23.876 12.82a3.85 3.85 0 0 0-1.563 5.233ZM118.075 428.484a3.894 3.894 0 0 0-5.259-1.57l-27.286 14.65a3.849 3.849 0 0 0-1.563 5.233l14.783 27.215a3.894 3.894 0 0 0 5.258 1.571 3.85 3.85 0 0 0 1.563-5.234l-12.934-23.812 23.875-12.82a3.849 3.849 0 0 0 1.563-5.233ZM113.312 485.286a3.886 3.886 0 0 1-5.426.788 3.857 3.857 0 0 1-.806-5.407l37.734-50.591a3.884 3.884 0 0 1 5.426-.788 3.856 3.856 0 0 1 .806 5.406l-37.734 50.592Z" class="a"/><path class="a" d="M104.266 48.906 92.264 12.691 128.48.69l12.002 36.215zM219.392 567l-22.817-4.757 4.757-22.818 22.817 4.758z"/><path d="m120.959 138.576.887.41a8.068 8.068 0 0 1 3.884 10.82l-13.101 27.229a8.067 8.067 0 0 1-10.654 3.825l-17.828-8.242a8.068 8.068 0 0 1-3.937-10.708l.41-.888a8.067 8.067 0 0 1 10.708-3.937l9.744 4.504 9.232-19.188a8.068 8.068 0 0 1 10.655-3.825Z" class="a"/><circle cx="215.079" cy="554.474" r="8" transform="rotate(-108.275 215.079 554.474)" class="a"/><circle cx="245.466" cy="544.439" r="8" transform="rotate(-108.275 245.466 544.439)" class="a"/><circle cx="275.851" cy="534.405" r="8" transform="rotate(-108.275 275.851 534.405)" class="a"/><circle cx="306.237" cy="524.37" r="8" transform="rotate(-108.275 306.237 524.37)" class="a"/><circle cx="336.623" cy="514.335" r="8" transform="rotate(-108.275 336.623 514.335)" class="a"/><circle cx="316.272" cy="554.756" r="8" transform="rotate(-108.275 316.272 554.756)" class="a"/><circle cx="346.658" cy="544.721" r="8" transform="rotate(-108.275 346.658 544.721)" class="a"/><circle cx="377.044" cy="534.686" r="8" transform="rotate(-108.275 377.044 534.686)" class="a"/><circle cx="255.782" cy="473.633" r="8" transform="rotate(-108.275 255.782 473.633)" class="a"/><circle cx="235.431" cy="514.053" r="8" transform="rotate(-108.275 235.431 514.053)" class="a"/><circle cx="265.817" cy="504.019" r="8" transform="rotate(-108.275 265.817 504.019)" class="a"/><circle cx="296.203" cy="493.984" r="8" transform="rotate(-108.275 296.203 493.984)" class="a"/><path fill-rule="evenodd" clip-rule="evenodd" d="M-.325 223.682a45.224 45.224 0 0 0-11.99 13.566 45.218 45.218 0 0 0-5.753 17.166l17.743-30.732Zm7.681-4.662-25.621 44.377c.15 1.944.426 3.874.822 5.777l30.213-52.33a45.477 45.477 0 0 0-5.414 2.176Zm11.274-3.684-34.448 59.666a45.58 45.58 0 0 0 1.723 4.217l37.238-64.498c-1.515.13-3.022.335-4.513.615Zm9.589-.765-39.906 69.118a45.281 45.281 0 0 0 2.243 3.318l41.657-72.153a45.047 45.047 0 0 0-3.994-.283Zm8.543 1.047-43.27 74.946a44.857 44.857 0 0 0 2.63 2.645l44.246-76.635a45.007 45.007 0 0 0-3.606-.956Zm7.729 2.456L-.517 296.03c.953.723 1.94 1.414 2.963 2.07l45.32-78.495a45.357 45.357 0 0 0-3.275-1.531Zm7.016 3.691L6.187 300.26a45.36 45.36 0 0 0 3.275 1.531l45.008-77.955a45.46 45.46 0 0 0-2.963-2.071Zm6.324 4.891-44.246 76.635a44.6 44.6 0 0 0 3.606.956l43.27-74.946a44.844 44.844 0 0 0-2.63-2.645Zm5.566 6.202L21.74 305.011a45.05 45.05 0 0 0 3.994.283l39.905-69.118a45.277 45.277 0 0 0-2.242-3.318Zm4.65 7.789L30.81 305.144a45.557 45.557 0 0 0 4.513-.615l34.448-59.666a45.448 45.448 0 0 0-1.723-4.216Zm3.349 10.044-30.213 52.33a45.482 45.482 0 0 0 5.414-2.176l25.621-44.377a45.589 45.589 0 0 0-.822-5.777Zm.625 14.76a45.228 45.228 0 0 1-5.753 17.167 45.232 45.232 0 0 1-11.99 13.565l17.743-30.732ZM4.39 299.28l-.195-.112.098.056.097.056Z" class="a"/><path d="M-26.22 284.113c0-21.539 17.46-39 39-39 21.538 0 39 17.461 39 39s-17.462 39-39 39c-21.54 0-39-17.461-39-39Z" class="b" stroke-width="8"/><path d="M1.414 469c-10.697 0-16.653 14.054-8.862 24.001C.344 502.948 14.554 514 14.554 514s14.672-11.052 22.002-20.999c7.33-9.947 2.297-24.001-8.861-24.001-11.159 0-13.14 8.528-13.14 8.528S12.11 469 1.413 469Z" class="a"/><path d="m135.5 390-16.887-29.25h33.775L135.5 390ZM38.98 107.063l5.123-46.916 38.069 27.895-43.192 19.021Z" class="a"/><circle cx="45.001" cy="390" r="10" transform="rotate(-180 45 390)" class="a"/></g></svg>