<svg width="447" height="587" fill="none" xmlns="http://www.w3.org/2000/svg"><style>.a{fill:#1584EB}.b{stroke:#1584EB}</style><g opacity=".3"><path d="M371.219 47.098a6.012 6.012 0 0 0-8.492 0l-33.968 33.91a5.988 5.988 0 0 0 0 8.478l33.968 33.911a6.012 6.012 0 0 0 8.492 0 5.988 5.988 0 0 0 0-8.478l-29.722-29.672 29.722-29.672a5.988 5.988 0 0 0 0-8.477ZM429.781 123.544a6.012 6.012 0 0 0 8.492 0l33.968-33.91a5.988 5.988 0 0 0 0-8.478l-33.968-33.911a6.012 6.012 0 0 0-8.492 0 5.988 5.988 0 0 0 0 8.477l29.722 29.672-29.722 29.672a5.988 5.988 0 0 0 0 8.478ZM411.69 36.946a6.008 6.008 0 0 1 7.697-3.583 5.992 5.992 0 0 1 3.589 7.684l-33.545 92.007a6.008 6.008 0 0 1-7.697 3.583 5.993 5.993 0 0 1-3.589-7.684l33.545-92.007Z" class="a"/><path d="M346.956 469.239a4.08 4.08 0 0 0-5.742.634l-20.428 25.547a4.098 4.098 0 0 0 .635 5.753l25.509 20.475a4.08 4.08 0 0 0 5.742-.634 4.098 4.098 0 0 0-.635-5.753l-22.32-17.916 17.874-22.353a4.098 4.098 0 0 0-.635-5.753ZM392.28 516.742a4.08 4.08 0 0 0 5.742-.634l20.428-25.547a4.098 4.098 0 0 0-.635-5.753l-25.509-20.475a4.08 4.08 0 0 0-5.742.634 4.098 4.098 0 0 0 .635 5.753l22.32 17.915-17.874 22.354a4.099 4.099 0 0 0 .635 5.753ZM373.56 459.329a4.083 4.083 0 0 1 4.936-3.005 4.093 4.093 0 0 1 3.002 4.945l-15.789 64.938a4.082 4.082 0 0 1-4.935 3.006 4.096 4.096 0 0 1-3.003-4.946l15.789-64.938ZM215.49 495l55.112 11.49-11.49 55.112L204 550.112zM227.757-20l22.817 4.757-4.757 22.818L223 2.817zM203.509 510.207l3.087 1.782-28.51 49.379-3.086-1.782z" class="a"/><path class="a" d="m215.854 517.334 3.087 1.782-28.51 49.379-3.086-1.782zM228.198 524.461l3.087 1.782-28.51 49.379-3.086-1.782zM240.543 531.589l3.087 1.782-28.51 49.379-3.086-1.782zM209.681 513.77l3.087 1.782-28.51 49.379-3.086-1.782zM222.026 520.898l3.087 1.782-28.51 49.379-3.086-1.782zM234.371 528.025l3.087 1.782-28.51 49.379-3.086-1.782zM246.716 535.152l3.087 1.782-28.51 49.379-3.086-1.782z"/><circle cx="141.683" cy="-7.439" r="8" transform="rotate(71.725 141.683 -7.44)" class="a"/><circle cx="111.297" cy="2.595" r="8" transform="rotate(71.725 111.297 2.595)" class="a"/><circle cx="80.912" cy="12.63" r="8" transform="rotate(71.725 80.912 12.63)" class="a"/><circle cx="50.526" cy="22.665" r="8" transform="rotate(71.725 50.526 22.665)" class="a"/><circle cx="40.491" cy="-7.721" r="8" transform="rotate(71.725 40.49 -7.721)" class="a"/><circle cx="10.105" cy="2.314" r="8" transform="rotate(71.725 10.105 2.314)" class="a"/><circle cx="131.367" cy="63.367" r="8" transform="rotate(71.725 131.367 63.367)" class="a"/><circle cx="151.718" cy="22.947" r="8" transform="rotate(71.725 151.718 22.947)" class="a"/><circle cx="121.332" cy="32.981" r="8" transform="rotate(71.725 121.332 32.981)" class="a"/><circle cx="90.946" cy="43.016" r="8" transform="rotate(71.725 90.946 43.016)" class="a"/><path fill-rule="evenodd" clip-rule="evenodd" d="M412.586 196.436c-9.095 6.843-16.992 15.591-23.041 26.069-6.05 10.479-9.678 21.691-11.056 32.989l34.097-59.058Zm-34.476 76.32c.29 3.736.819 7.444 1.581 11.102l58.059-100.562a87.533 87.533 0 0 0-10.404 4.181l-49.236 85.279Zm70.901-92.357-66.199 114.659a87.78 87.78 0 0 0 3.313 8.102l71.558-123.944c-2.912.25-5.806.645-8.672 1.183Zm18.427-1.471-76.686 132.823a86.997 86.997 0 0 0 4.31 6.376l80.052-138.654a86.863 86.863 0 0 0-7.676-.545Zm16.416 2.012-83.151 144.022a86.219 86.219 0 0 0 5.055 5.083l85.026-147.268a86.545 86.545 0 0 0-6.93-1.837Zm14.853 4.72-86.49 149.805a87.48 87.48 0 0 0 5.693 3.979l87.089-150.843a87.887 87.887 0 0 0-6.292-2.941Zm9.861 4.89.15.087-.075-.044-.075-.043Zm3.622 2.203-87.089 150.843a87.441 87.441 0 0 0 6.292 2.94l86.49-149.804a87.093 87.093 0 0 0-5.693-3.979Zm12.152 9.398L439.316 349.42a86.537 86.537 0 0 0 6.93 1.836l83.151-144.021a86.542 86.542 0 0 0-5.055-5.084Zm10.696 11.919-80.051 138.654c2.557.296 5.118.477 7.675.545l76.686-132.824a87.193 87.193 0 0 0-4.31-6.375Zm8.937 14.967L472.417 352.98a87.33 87.33 0 0 0 8.672-1.182l66.199-114.659a87.78 87.78 0 0 0-3.313-8.102Zm6.434 19.302L492.35 348.901a87.37 87.37 0 0 0 10.404-4.182l49.236-85.278a87.732 87.732 0 0 0-1.581-11.102Zm1.202 28.364-34.097 59.058c9.095-6.843 16.992-15.591 23.041-26.07 6.05-10.478 9.678-21.69 11.056-32.988Z" class="a"/><circle cx="492" cy="220" r="79" class="b" stroke-width="8"/><path d="M363.61 359.767c-1.908-.599-3.331-1.797-4.269-3.594-.938-1.797-1.108-3.65-.508-5.558.599-1.908 1.797-3.331 3.594-4.269 1.797-.938 3.649-1.108 5.557-.508 1.909.599 3.332 1.797 4.27 3.594.938 1.797 1.107 3.649.508 5.557-.599 1.908-1.797 3.332-3.594 4.27-1.797.938-3.65 1.107-5.558.508Zm-27.895 59.789a2 2 0 0 1-1.309-2.508l15.37-48.943a196.673 196.673 0 0 1-12.126-5.275 131.755 131.755 0 0 1-9.166-4.811 1.974 1.974 0 0 1-.684-2.744l1.146-1.873a2.024 2.024 0 0 1 2.734-.688 130.851 130.851 0 0 0 13.566 6.789c5.173 2.218 10.685 4.246 16.536 6.084 5.852 1.837 11.534 3.325 17.047 4.462a130.894 130.894 0 0 0 15.011 2.186 2.021 2.021 0 0 1 1.849 2.127l-.13 2.192a1.974 1.974 0 0 1-2.13 1.86c-3.337-.283-6.76-.714-10.27-1.293a196.5 196.5 0 0 1-12.966-2.604l-15.37 48.943a2 2 0 0 1-2.507 1.309l-1.908-.599a2 2 0 0 1-1.309-2.507l7.191-22.898-8.969-2.816-7.19 22.897a2 2 0 0 1-2.508 1.309l-1.908-.599ZM264.446 104.299c-7.937-1.981-14.928 7.218-10.967 15.953 3.96 8.735 12.481 19.469 12.481 19.469s12.908-5.385 20.167-11.319c7.259-5.933 6.096-17.168-2.183-19.235s-11.31 3.817-11.31 3.817-.252-6.703-8.188-8.685Z" class="a"/><path d="m243.5 33 16.887 29.25h-33.774L243.5 33Z" class="a"/><circle cx="342" cy="181" r="10" class="a"/></g></svg>