<svg xmlns="http://www.w3.org/2000/svg" viewBox="0 0 263.06 59.61"><defs><style>.a{fill:#fff}.b{fill:#333}.c{fill:#1572eb}</style></defs><path class="a" d="M58.04 13.64c-.34-1.06-2.4-6.77-3.56-8.54a11.2 11.2 0 0 0-9.4-5.1c-4.46 0-8.51 2.66-10.31 6.77l-5.92 13.54c-.1-.07-1.2-2.38-1.9-3.34a10.72 10.72 0 0 0-8.64-4.4c-4.68 0-8.78 3.01-10.21 7.49L.51 43.82a10.92 10.92 0 0 0 1.57 9.71 10.72 10.72 0 0 0 8.64 4.4c3.77 0 7.16-1.96 9.08-5.06a11.23 11.23 0 0 0 9.44 5.17h.37c4.46 0 8.51-2.66 10.31-6.77l4.39-10.04 2.94 9.21c1.43 4.48 5.53 7.49 10.21 7.49 3.4 0 6.63-1.65 8.64-4.4a10.89 10.89 0 0 0 1.57-9.71l-9.63-30.17ZM262.07 39.43c-.43-.78-.94-1.48-1.52-2.07a6.365 6.365 0 0 0-5.02-1.89v-.96c2.17-.06 4.13-.97 5.53-2.58.88-1 1.92-2.74 1.92-5.3 0-.97-.15-1.92-.45-2.82-.3-.92-.69-1.7-1.19-2.37a6.39 6.39 0 0 0-5.14-2.6h-.78c-.3-1.91-1.24-3.59-2.69-4.76-1.06-.89-2.81-1.85-5.4-1.85-.84 0-1.66.1-2.46.3-.61.13-1.12.29-1.59.48a6.386 6.386 0 0 0-3.98 5.92v.2c-2.01-.85-4.31-1.28-6.88-1.28-2.2 0-4.26.31-6.12.91-.13.04-.24.08-.37.12 0-.16.02-.32.02-.48 0-2.24-.84-4.34-2.36-5.93-1.61-1.71-3.81-2.65-6.23-2.65-1.91 0-3.72.62-5.2 1.75-1.08-.82-2.75-1.62-5.14-1.62-.81 0-1.62.1-2.42.3-.61.13-1.11.29-1.59.48a6.4 6.4 0 0 0-3.98 5.92v2.77c-2.27-1.04-4.78-1.57-7.46-1.57-2.07 0-4 .31-5.75.91-.92.31-1.78.65-2.58 1.03-1.09-.8-2.74-1.58-5.09-1.58-.81 0-1.62.1-2.42.3-.6.13-1.11.28-1.58.48-1.26.51-2.3 1.4-3 2.51-.38-.53-.83-1.01-1.34-1.43-1.06-.89-2.81-1.86-5.41-1.86-.84 0-1.66.1-2.46.3-.28.06-.53.13-.77.2-.87-.35-1.93-.61-3.18-.67h-.27c-1.07 0-2.12.27-3.05.77v-.87c0-2.46-1.01-4.66-2.8-6.11-1.06-.89-2.81-1.85-5.4-1.85-.84 0-1.66.1-2.46.3-.61.13-1.12.29-1.59.48a6.386 6.386 0 0 0-3.98 5.92v1.2h-.03c-1.53 0-3 .14-4.39.41-.55-.2-1.13-.34-1.72-.41-.42-.05-.85-.08-1.28-.08-1.91 0-3.35.5-3.88.71-.81.32-1.53.81-2.13 1.4-2.33-1.34-5.12-2.03-8.32-2.03-1.59 0-3.15.17-4.62.49-1.54.32-2.96.82-4.24 1.48-.56.28-1.08.61-1.55.98-.84-.67-1.77-1.23-2.78-1.67-1.93-.85-4.14-1.28-6.57-1.28s-4.47.42-6.42 1.25c-.06-.03-.13-.05-.19-.08-1.88-.77-3.99-1.17-6.27-1.17-1.84 0-3.68.29-5.49.85-1.74.52-3.21 1.17-4.49 1.99-1.4.89-2.5 1.95-3.27 3.16-.06.09-.12.19-.17.28-.77 1.37-1.16 2.93-1.16 4.62v14.95c0 2.47.99 4.65 2.77 6.14.09.08.19.15.29.23 1.44 1.06 3.18 1.6 5.18 1.6.85 0 1.68-.11 2.47-.31.58-.13 1.07-.28 1.53-.46a6.37 6.37 0 0 0 2.41-1.72 6.68 6.68 0 0 0 .98.89c1.44 1.06 3.19 1.6 5.22 1.6.81 0 1.6-.1 2.37-.3.62-.13 1.15-.28 1.63-.48a6.37 6.37 0 0 0 2.41-1.72 6.68 6.68 0 0 0 .98.89c1.44 1.06 3.19 1.6 5.22 1.6.81 0 1.6-.1 2.37-.3.62-.13 1.15-.28 1.63-.48.46-.19.89-.43 1.29-.71 2.34 1.24 5.18 1.88 8.47 1.88 2.01 0 3.89-.24 5.6-.72 1.43-.4 2.63-.86 3.66-1.38.04.03.08.07.13.1 1.44 1.06 3.18 1.6 5.18 1.6.85 0 1.68-.11 2.47-.31.58-.13 1.07-.28 1.53-.46a6.362 6.362 0 0 0 3.72-4.11c.47 1.18 1.2 2.23 2.2 3.06.09.08.19.15.29.23 1.44 1.06 3.18 1.6 5.18 1.6.85 0 1.68-.11 2.47-.31.58-.13 1.07-.28 1.53-.46a6.34 6.34 0 0 0 2.41-1.72c.45.41.91.77 1.38 1.09.06.04.13.09.2.13 1.38.87 2.97 1.32 4.6 1.32s3.16-.46 4.45-1.32c.17.08.33.17.5.24.05.02.1.04.15.07 2.12.87 4.57 1.31 7.3 1.31 2.05 0 3.84-.22 5.49-.65v.27c0 2.47.99 4.65 2.77 6.14 1.03.85 2.81 1.87 5.47 1.87.85 0 1.68-.11 2.47-.31.58-.13 1.07-.28 1.53-.46a6.386 6.386 0 0 0 3.98-5.92V52c2.44-.17 4.69-.81 6.72-1.9.69-.37 1.33-.79 1.94-1.26 1.7 1.7 4.01 2.71 6.69 2.85.21.01.42.02.62.02 1.52 0 2.93-.3 4.18-.86 1.16.56 2.48.85 3.93.85.85 0 1.68-.11 2.47-.31.58-.13 1.07-.28 1.53-.46.04-.02.07-.03.11-.05 1.15.55 2.44.83 3.87.83.85 0 1.68-.11 2.47-.31.58-.13 1.07-.28 1.53-.46a6.336 6.336 0 0 0 2.97-2.47c.31.44.67.85 1.07 1.22.16.15.34.29.51.42 1.44 1.06 3.19 1.6 5.22 1.6.81 0 1.6-.1 2.37-.3.62-.13 1.15-.28 1.63-.48.53-.21 1.01-.5 1.45-.83 2.19 1.3 4.78 1.96 7.72 1.96 2.43 0 4.45-.46 6.17-1.4 2.78-1.52 4.44-4.21 4.44-7.18 0-1.43-.34-2.77-1-3.98Z"/><g data-name="symbol"><path class="b" d="M10.72 51.54c-2.95 0-5.04-2.93-4.13-5.78L14.18 22c.58-1.82 2.25-3.05 4.13-3.05 2.95 0 5.04 2.93 4.13 5.78l-7.59 23.76c-.58 1.82-2.25 3.05-4.13 3.05Z"/><path class="c" d="M45.08 6.39c-1.93 0-3.67 1.15-4.45 2.94L29.44 34.91l-4.04-9.23v.03l-4.5 14.08 3.9 8.92a4.866 4.866 0 0 0 4.45 2.94h.36c1.93 0 3.67-1.15 4.45-2.94l15.47-35.34c1.44-3.28-.92-6.98-4.45-6.98Z"/><path class="b" d="m61.59 45.76-9.63-30.17-5.27 12.05 6.66 20.85c.58 1.82 2.25 3.05 4.13 3.05 2.95 0 5.04-2.93 4.13-5.78Z"/></g><g data-name="type"><path class="b" d="M103.68 27.24c-.63-1.02-1.52-1.78-2.67-2.28-1.12-.5-2.46-.75-4.01-.75s-2.93.28-4.13.83c-.98.45-1.81.97-2.48 1.56-.54-.72-1.34-1.28-2.38-1.69-1.12-.47-2.41-.7-3.88-.7-1.21 0-2.41.19-3.62.57-1.18.35-2.15.77-2.93 1.27-.6.38-1.03.77-1.29 1.18-.23.41-.34.91-.34 1.49v14.95c0 .56.16.96.47 1.23.32.23.78.35 1.38.35.34 0 .66-.04.95-.13.29-.06.5-.12.65-.18V28.55c.57-.38 1.28-.72 2.11-1.01a7.77 7.77 0 0 1 2.58-.44c1.35 0 2.43.34 3.23 1.01.83.67 1.25 1.72 1.25 3.16v12.4c0 .56.14.96.43 1.23.32.23.79.35 1.42.35.32 0 .62-.04.9-.13.32-.06.55-.12.69-.18V31c0-.67-.07-1.29-.22-1.84 0-.02-.01-.03-.02-.05.63-.57 1.3-1.02 2.04-1.35.95-.44 1.92-.66 2.93-.66 1.35 0 2.43.34 3.23 1.01.8.67 1.21 1.72 1.21 3.16v12.4c0 .56.14.96.43 1.23.32.23.79.35 1.42.35.32 0 .62-.04.9-.13.32-.06.55-.12.69-.18V31.09c0-1.55-.32-2.83-.95-3.86ZM116.8 45.64c-2.7 0-4.8-.54-6.29-1.62-1.46-1.08-2.2-2.64-2.2-4.69 0-1.9.62-3.35 1.85-4.34 1.26-1.02 3-1.64 5.21-1.84l6.12-.61v-1.23c0-1.46-.43-2.53-1.29-3.2-.86-.67-2.02-1.01-3.49-1.01-1.18 0-2.31.18-3.4.53-1.06.35-2.01.75-2.84 1.18-.23-.2-.45-.44-.65-.7-.17-.29-.26-.58-.26-.88 0-.76.42-1.34 1.25-1.75.78-.41 1.67-.72 2.67-.92 1.03-.23 2.12-.35 3.27-.35 2.5 0 4.48.57 5.94 1.71 1.46 1.14 2.2 2.94 2.2 5.39V41.7c0 .64-.13 1.14-.39 1.49-.23.32-.59.63-1.08.92-.69.38-1.61.73-2.76 1.05-1.15.32-2.44.48-3.88.48Zm0-2.89c1.21 0 2.2-.12 2.97-.35.8-.26 1.38-.51 1.72-.75v-6.36l-5.34.57c-1.49.12-2.6.45-3.32 1.01-.72.56-1.08 1.36-1.08 2.41s.42 1.93 1.25 2.54c.86.61 2.12.92 3.79.92ZM138.47 24.21c-1.58 0-3.02.19-4.31.57-.46.12-.88.26-1.27.4-.21-.57-.88-.97-1.28-1.02-1.15-.14-2.04.22-2.04.22s-.06.39-.06 1.15v18.14c0 .56.16.96.47 1.23.32.23.78.35 1.38.35.34 0 .66-.04.95-.13.29-.06.5-.12.65-.18V28.55c.66-.38 1.49-.7 2.5-.96 1.01-.29 2.17-.44 3.49-.44.46 0 .92.03 1.38.09s.83.12 1.12.18c.14-.18.26-.38.34-.61.09-.26.13-.54.13-.83 0-1.17-1.15-1.75-3.45-1.75ZM151.62 34.43l6.92-6.18c.46-.38.8-.73 1.03-1.05.26-.32.39-.69.39-1.1 0-.5-.2-.89-.6-1.18-.37-.32-.9-.5-1.59-.53l-9.43 9.3V17.9c0-.56-.16-.95-.47-1.18-.29-.26-.73-.39-1.34-.39-.34 0-.67.04-.99.13-.29.06-.5.12-.65.18v27.04c0 .56.16.96.47 1.23.32.23.78.35 1.38.35.34 0 .66-.04.95-.13.29-.06.5-.12.65-.18v-9.82l8.7 8.9c.37.38.73.69 1.08.92.37.23.78.35 1.21.35.55 0 .98-.19 1.29-.57.34-.38.55-.89.6-1.53l-9.59-8.76ZM179.56 24.96c-.29-.26-.75-.39-1.38-.39-.32 0-.63.04-.95.13-.29.06-.5.12-.65.18v16.7c-.46.26-1.09.53-1.9.79-.8.23-1.78.35-2.93.35-1.72 0-3.07-.41-4.05-1.23-.98-.82-1.46-2.16-1.46-4.03V26.2c0-.58-.16-.99-.47-1.23-.29-.26-.73-.39-1.34-.39-.34 0-.67.04-.99.13-.29.06-.5.12-.65.18v12.75c0 1.81.34 3.32 1.03 4.51.69 1.17 1.69 2.05 3.02 2.63 1.35.56 2.97.83 4.87.83 1.64 0 3.04-.18 4.22-.53 1.18-.35 2.08-.72 2.71-1.1.6-.35.98-.7 1.12-1.05.17-.38.26-.88.26-1.49V26.19c0-.58-.16-.99-.47-1.23ZM200.39 28.81c-.89-1.58-2.11-2.73-3.66-3.46-1.52-.76-3.23-1.14-5.13-1.14-1.38 0-2.61.19-3.7.57-1.06.35-1.98.75-2.76 1.18-.63.38-1.05.75-1.25 1.1-.2.35-.3.82-.3 1.4V51.6c0 .56.16.96.47 1.23.32.26.78.39 1.38.39.34 0 .66-.04.95-.13.29-.06.5-.12.65-.18v-8.54c.42.23.94.45 1.55.65 1.09.38 2.25.57 3.49.57 1.9 0 3.58-.39 5.04-1.18 1.46-.79 2.6-1.97 3.4-3.55.83-1.61 1.25-3.61 1.25-6s-.46-4.5-1.38-6.05Zm-3.96 12.05c-1.21 1.23-2.81 1.84-4.82 1.84-1.23 0-2.3-.2-3.19-.61-.51-.26-.97-.54-1.38-.85V28.37c.57-.32 1.22-.61 1.94-.88.72-.26 1.59-.39 2.63-.39 1.18 0 2.27.25 3.27.75 1.03.5 1.85 1.31 2.46 2.45.63 1.11.95 2.63.95 4.56 0 2.75-.62 4.75-1.85 6Z"/><path class="c" d="M211.47 41.34c-.18.04-2.58 1.66-2.58-.97V17.9c0-.56-.16-.95-.47-1.18-.29-.26-.75-.39-1.38-.39-.32 0-.63.04-.95.13-.29.06-.5.12-.65.18v23.81c0 1.26.03 4.62 3.66 4.81 1.55.08 2.63-.47 3.01-1.44.26-.67-.49-2.5-.64-2.47ZM218.63 24.96c-.29-.26-.73-.39-1.34-.39-.34 0-.67.04-.99.13-.29.06-.5.12-.65.18v18.8c0 .56.16.96.47 1.23.32.23.78.35 1.38.35.34 0 .66-.04.95-.13.29-.06.5-.12.65-.18V26.18c0-.58-.16-.99-.47-1.23ZM217.38 20.57c.66 0 1.19-.2 1.59-.61.4-.44.6-.96.6-1.58s-.2-1.12-.6-1.53c-.4-.44-.93-.66-1.59-.66s-1.16.22-1.59.66c-.43.41-.65.92-.65 1.53s.22 1.14.65 1.58c.43.41.96.61 1.59.61ZM238.59 26.05c-1.49-1.23-3.55-1.84-6.16-1.84-1.55 0-2.94.2-4.18.61-1.23.38-2.23.79-2.97 1.23-.6.38-1.03.77-1.29 1.18-.23.38-.34.88-.34 1.49v14.95c0 .56.16.96.47 1.23.32.23.78.35 1.38.35.34 0 .66-.04.95-.13.29-.06.5-.12.65-.18V28.55c.63-.38 1.39-.72 2.28-1.01.89-.29 1.91-.44 3.06-.44 1.52 0 2.73.38 3.62 1.14.92.76 1.38 1.96 1.38 3.59v11.83c0 .56.14.96.43 1.23.32.23.79.35 1.42.35.32 0 .62-.04.9-.13.32-.06.55-.12.69-.18V31.65c0-2.54-.76-4.41-2.28-5.61ZM256.46 42.49c-.14-.26-.3-.48-.47-.66-.4.23-.9.44-1.51.61-.6.18-1.15.26-1.64.26-1.15 0-2.05-.23-2.71-.7-.66-.5-.99-1.33-.99-2.5V28.1h6.16c.4 0 .72-.13.95-.39.23-.26.34-.63.34-1.1 0-.29-.04-.57-.13-.83s-.17-.45-.26-.57h-7.06v-5.04c0-.56-.16-.95-.47-1.18-.29-.26-.73-.39-1.34-.39-.34 0-.67.04-.99.13-.29.06-.5.12-.65.18v6.31h-3.06c-.25 0-.45.2-.45.45v1.99c0 .25.2.45.45.45h3.06v11.62c0 2.1.62 3.61 1.85 4.51 1.26.91 2.9 1.36 4.91 1.36 1.32 0 2.35-.2 3.1-.61s1.12-.94 1.12-1.58c0-.35-.07-.66-.22-.92Z"/></g></svg>