<svg xmlns="http://www.w3.org/2000/svg" viewBox="0 0 968 181.15"><defs><style>.a{fill:#333}.b{fill:#1572eb}#d:target .a{fill:#fff} #sl:target :is(.a,.b){fill:#000} #sd:target :is(.a,.b){fill:#fff}</style></defs><g id="d"><g id="sl"><g id="sd"><path class="a" d="M16.79 174.62c-11.4 0-19.48-11.32-15.96-22.35l29.34-91.88c2.25-7.03 8.69-11.8 15.96-11.8 11.4 0 19.48 11.32 15.96 22.35l-29.34 91.89c-2.25 7.03-8.69 11.8-15.96 11.8Z"/><path class="b" d="M149.65 0c-7.45 0-14.2 4.46-17.23 11.38L89.14 110.3 73.52 74.6l-.03.11-17.39 54.45 15.09 34.5c3.03 6.92 9.78 11.38 17.23 11.38.24 0 .48-.01.72-.02.24 0 .47.02.71.02 7.45 0 14.2-4.46 17.23-11.38l59.8-136.67C172.43 14.3 163.3 0 149.65 0Z"/><path class="a" d="m213.53 152.27-37.26-116.7-20.4 46.62 25.74 80.63c2.25 7.03 8.69 11.8 15.96 11.8 11.4 0 19.48-11.32 15.96-22.35ZM376.29 80.63c-2.44-3.96-5.89-6.89-10.33-8.81-4.33-1.92-9.5-2.88-15.49-2.88s-11.33 1.07-15.99 3.22c-3.79 1.75-6.99 3.76-9.6 6.03-2.11-2.77-5.17-4.95-9.22-6.54-4.33-1.81-9.33-2.71-14.99-2.71-4.66 0-9.33.73-13.99 2.2-4.55 1.36-8.33 2.99-11.33 4.92-2.33 1.47-4 2.99-5 4.58-.89 1.58-1.33 3.5-1.33 5.76v57.8c0 2.15.61 3.73 1.83 4.75 1.22.9 3 1.36 5.33 1.36 1.33 0 2.55-.17 3.66-.51 1.11-.23 1.94-.45 2.5-.68v-63.4c2.22-1.47 4.94-2.77 8.16-3.9 3.22-1.13 6.55-1.7 9.99-1.7 5.22 0 9.38 1.3 12.49 3.9 3.22 2.6 4.83 6.67 4.83 12.2v47.97c0 2.15.56 3.73 1.67 4.75 1.22.9 3.05 1.36 5.5 1.36 1.22 0 2.39-.17 3.5-.51 1.22-.23 2.11-.45 2.67-.68v-53.9c0-2.6-.28-4.97-.83-7.12l-.06-.21c2.42-2.21 5.04-3.95 7.89-5.22 3.66-1.7 7.44-2.54 11.33-2.54 5.22 0 9.38 1.3 12.49 3.9 3.11 2.6 4.66 6.67 4.66 12.2v47.97c0 2.15.56 3.73 1.67 4.75 1.22.9 3.05 1.36 5.5 1.36 1.22 0 2.39-.17 3.5-.51 1.22-.23 2.11-.45 2.67-.68V95.54c0-5.99-1.22-10.96-3.66-14.92ZM427.02 151.83c-10.44 0-18.55-2.09-24.32-6.27-5.66-4.18-8.5-10.23-8.5-18.14 0-7.35 2.39-12.94 7.16-16.78 4.89-3.96 11.61-6.33 20.16-7.12l23.65-2.37V96.4c0-5.65-1.67-9.78-5-12.37-3.33-2.6-7.83-3.9-13.49-3.9-4.55 0-8.94.68-13.16 2.03-4.11 1.36-7.77 2.88-10.99 4.58-.89-.79-1.72-1.7-2.5-2.71-.67-1.13-1-2.26-1-3.39 0-2.94 1.61-5.2 4.83-6.78 3-1.58 6.44-2.77 10.33-3.56 4-.9 8.22-1.36 12.66-1.36 9.66 0 17.32 2.2 22.99 6.61 5.66 4.41 8.5 11.36 8.5 20.85v40.17c0 2.49-.5 4.41-1.5 5.76-.89 1.24-2.28 2.43-4.16 3.56-2.67 1.47-6.22 2.83-10.66 4.07-4.44 1.24-9.44 1.86-14.99 1.86Zm0-11.19c4.66 0 8.5-.45 11.49-1.36 3.11-1.02 5.33-1.98 6.66-2.88v-24.58l-20.66 2.2c-5.77.45-10.05 1.75-12.83 3.9-2.78 2.15-4.16 5.25-4.16 9.32s1.61 7.46 4.83 9.83c3.33 2.37 8.22 3.56 14.66 3.56ZM510.85 68.93c-6.11 0-11.66.73-16.66 2.2-1.77.48-3.41 1-4.91 1.55-.8-2.22-3.41-3.76-4.95-3.94-4.46-.53-7.9.85-7.9.85s-.23 1.52-.23 4.43v70.16c0 2.15.61 3.73 1.83 4.75 1.22.9 3 1.36 5.33 1.36 1.33 0 2.55-.17 3.66-.51 1.11-.23 1.94-.45 2.5-.68V85.7c2.55-1.47 5.77-2.71 9.66-3.73 3.89-1.13 8.38-1.7 13.49-1.7 1.78 0 3.55.11 5.33.34 1.78.23 3.22.45 4.33.68.56-.68 1-1.47 1.33-2.37.33-1.02.5-2.09.5-3.22 0-4.52-4.44-6.78-13.33-6.78ZM561.7 108.44l26.78-23.91c1.78-1.47 3.11-2.83 4-4.07 1-1.24 1.5-2.66 1.5-4.24 0-1.92-.78-3.45-2.33-4.58-1.44-1.24-3.5-1.92-6.16-2.03l-36.48 35.98V44.52c0-2.15-.61-3.67-1.83-4.58-1.11-1.02-2.83-1.53-5.16-1.53-1.33 0-2.61.17-3.83.51-1.11.23-1.94.45-2.5.68v104.59c0 2.15.61 3.73 1.83 4.75 1.22.9 3 1.36 5.33 1.36 1.33 0 2.55-.17 3.66-.51 1.11-.23 1.94-.45 2.5-.68v-37.96l33.65 34.4c1.44 1.47 2.83 2.66 4.16 3.56 1.44.9 3 1.36 4.66 1.36 2.11 0 3.78-.73 5-2.2 1.33-1.47 2.11-3.45 2.33-5.93l-37.1-33.89ZM669.75 71.82c-1.11-1.02-2.89-1.53-5.33-1.53-1.22 0-2.44.17-3.66.51-1.11.23-1.94.45-2.5.68v64.58c-1.78 1.02-4.22 2.03-7.33 3.05-3.11.9-6.89 1.36-11.33 1.36-6.66 0-11.88-1.58-15.66-4.75-3.78-3.16-5.66-8.36-5.66-15.6V76.56c0-2.26-.61-3.84-1.83-4.75-1.11-1.02-2.83-1.53-5.16-1.53-1.33 0-2.61.17-3.83.51-1.11.23-1.94.45-2.5.68v49.33c0 7.01 1.33 12.83 4 17.46 2.67 4.52 6.55 7.91 11.66 10.17 5.22 2.15 11.49 3.22 18.82 3.22 6.33 0 11.77-.68 16.32-2.03 4.55-1.36 8.05-2.77 10.49-4.24 2.33-1.36 3.78-2.71 4.33-4.07.67-1.47 1-3.39 1-5.76V76.56c0-2.26-.61-3.84-1.83-4.75ZM750.32 86.73c-3.44-6.1-8.16-10.57-14.16-13.39-5.89-2.94-12.49-4.41-19.82-4.41-5.33 0-10.11.73-14.33 2.2-4.11 1.36-7.66 2.88-10.66 4.58-2.44 1.47-4.05 2.88-4.83 4.24-.78 1.36-1.17 3.16-1.17 5.42v89.5c0 2.15.61 3.73 1.83 4.75 1.22 1.02 3 1.53 5.33 1.53 1.33 0 2.55-.17 3.66-.51 1.11-.23 1.94-.45 2.5-.68v-33.03c1.63.9 3.62 1.74 6 2.52 4.22 1.47 8.72 2.2 13.49 2.2 7.33 0 13.83-1.53 19.49-4.58 5.66-3.05 10.05-7.63 13.16-13.73 3.22-6.22 4.83-13.96 4.83-23.22s-1.78-17.4-5.33-23.39Zm-15.33 46.62c-4.66 4.75-10.88 7.12-18.66 7.12-4.78 0-8.89-.79-12.33-2.37a39.308 39.308 0 0 1-5.33-3.27V85.05c2.22-1.24 4.72-2.37 7.5-3.39 2.78-1.02 6.17-1.53 10.16-1.53 4.55 0 8.77.96 12.66 2.88 4 1.92 7.16 5.09 9.49 9.49 2.44 4.29 3.66 10.17 3.66 17.63 0 10.62-2.39 18.36-7.16 23.22Z"/><path class="b" d="M793.17 135.16c-.71.14-9.97 6.42-9.97-3.75V44.52c0-2.15-.61-3.67-1.83-4.58-1.11-1.02-2.89-1.53-5.33-1.53-1.22 0-2.44.17-3.66.51-1.11.23-1.94.45-2.5.68v92.1c0 4.87.13 17.87 14.15 18.59 5.98.31 10.17-1.84 11.64-5.58 1.01-2.58-1.9-9.67-2.49-9.56ZM820.85 71.82c-1.11-1.02-2.83-1.53-5.16-1.53-1.33 0-2.61.17-3.83.51-1.11.23-1.94.45-2.5.68v72.72c0 2.15.61 3.73 1.83 4.75 1.22.9 3 1.36 5.33 1.36 1.33 0 2.55-.17 3.66-.51 1.11-.23 1.94-.45 2.5-.68V76.56c0-2.26-.61-3.84-1.83-4.75ZM816.02 54.86c2.55 0 4.61-.79 6.16-2.37 1.55-1.7 2.33-3.73 2.33-6.1s-.78-4.35-2.33-5.93c-1.55-1.7-3.61-2.54-6.16-2.54s-4.5.85-6.16 2.54c-1.67 1.58-2.5 3.56-2.5 5.93s.83 4.41 2.5 6.1c1.67 1.58 3.72 2.37 6.16 2.37ZM898.04 76.05c-5.77-4.75-13.71-7.12-23.82-7.12-6 0-11.38.79-16.16 2.37-4.78 1.47-8.61 3.05-11.49 4.75-2.33 1.47-4 2.99-5 4.58-.89 1.47-1.33 3.39-1.33 5.76v57.8c0 2.15.61 3.73 1.83 4.75 1.22.9 3 1.36 5.33 1.36 1.33 0 2.55-.17 3.66-.51 1.11-.23 1.94-.45 2.5-.68v-63.4c2.44-1.47 5.39-2.77 8.83-3.9 3.44-1.13 7.39-1.7 11.83-1.7 5.89 0 10.55 1.47 13.99 4.41 3.55 2.94 5.33 7.57 5.33 13.9v45.77c0 2.15.56 3.73 1.67 4.75 1.22.9 3.05 1.36 5.5 1.36 1.22 0 2.39-.17 3.5-.51 1.22-.23 2.11-.45 2.67-.68V97.75c0-9.83-2.94-17.06-8.83-21.7ZM967.17 139.62c-.56-1.02-1.17-1.86-1.83-2.54-1.55.9-3.5 1.7-5.83 2.37-2.33.68-4.44 1.02-6.33 1.02-4.44 0-7.94-.9-10.49-2.71-2.55-1.92-3.83-5.14-3.83-9.66V84.03h23.82c1.55 0 2.78-.51 3.66-1.53.89-1.02 1.33-2.43 1.33-4.24 0-1.13-.17-2.2-.5-3.22-.33-1.02-.67-1.75-1-2.2h-27.32V53.35c0-2.15-.61-3.67-1.83-4.58-1.11-1.02-2.83-1.53-5.16-1.53-1.33 0-2.61.17-3.83.51-1.11.23-1.94.45-2.5.68v24.41h-11.85c-.97 0-1.75.78-1.75 1.75v7.68c0 .97.78 1.75 1.75 1.75h11.85v44.92c0 8.14 2.39 13.96 7.16 17.46 4.89 3.5 11.22 5.25 18.99 5.25 5.11 0 9.11-.79 11.99-2.37 2.89-1.58 4.33-3.62 4.33-6.1 0-1.36-.28-2.54-.83-3.56Z"/></g></g></g></svg>