<svg xmlns="http://www.w3.org/2000/svg" viewBox="0 0 390.4 344.33"><defs><style>.a{fill:#333}.b{fill:#1572eb}#d:target .a{fill:#fff}#sl:target :is(.a,.b){fill:#000}#sd:target :is(.a,.b){fill:#fff}</style></defs><g id="d"><g id="sl"><g id="sd"><path class="a" d="M77.13 228.09c-14.89 0-25.44-14.78-20.84-29.19L94.61 78.88c2.93-9.19 11.35-15.41 20.84-15.41 14.89 0 25.44 14.78 20.84 29.19L97.97 212.68c-2.93 9.19-11.35 15.41-20.84 15.41Z"/><path class="b" d="M250.68 0c-9.73 0-18.55 5.83-22.5 14.87l-56.53 129.21-20.4-46.63s-.02.09-.04.14l-22.71 71.12 19.71 45.06c3.96 9.04 12.77 14.87 22.5 14.87.31 0 .62-.02.93-.03.31.01.61.03.92.03 9.73 0 18.55-5.83 22.5-14.87l78.11-178.51C280.42 18.68 268.5 0 250.67 0Z"/><path class="a" d="M334.11 198.9 285.44 46.47l-26.64 60.89 33.63 105.32c2.93 9.19 11.35 15.41 20.84 15.41 14.89 0 25.44-14.78 20.84-29.19ZM59.92 288.19c-1.36-2.21-3.29-3.85-5.77-4.92-2.42-1.07-5.3-1.61-8.65-1.61s-6.33.6-8.93 1.8c-2.12.98-3.89 2.11-5.36 3.38-1.18-1.55-2.89-2.77-5.16-3.66-2.42-1.01-5.21-1.51-8.37-1.51-2.61 0-5.21.41-7.82 1.23-2.54.76-4.65 1.67-6.33 2.75-1.3.82-2.23 1.67-2.79 2.56-.5.88-.74 1.96-.74 3.22v32.28c0 1.2.34 2.08 1.02 2.65.68.5 1.67.76 2.98.76.74 0 1.43-.09 2.05-.28.62-.13 1.09-.25 1.4-.38v-35.41c1.24-.82 2.76-1.55 4.56-2.18 1.8-.63 3.66-.95 5.58-.95 2.92 0 5.24.73 6.98 2.18 1.8 1.45 2.7 3.72 2.7 6.82v26.79c0 1.2.31 2.08.93 2.65.68.5 1.71.76 3.07.76.68 0 1.33-.09 1.95-.28.68-.13 1.18-.25 1.49-.38v-30.11c0-1.45-.16-2.78-.47-3.98 0-.04-.02-.07-.03-.11 1.35-1.23 2.81-2.22 4.4-2.92 2.05-.95 4.16-1.42 6.33-1.42 2.92 0 5.24.73 6.98 2.18s2.6 3.72 2.6 6.82v26.79c0 1.2.31 2.08.93 2.65.68.5 1.71.76 3.07.76.68 0 1.33-.09 1.95-.28.68-.13 1.18-.25 1.49-.38v-29.92c0-3.35-.68-6.12-2.05-8.33Zm28.33 39.76c-5.83 0-10.36-1.17-13.58-3.5-3.16-2.34-4.74-5.71-4.74-10.13 0-4.1 1.33-7.23 4-9.37 2.73-2.21 6.48-3.53 11.26-3.98l13.21-1.33v-2.65c0-3.16-.93-5.46-2.79-6.91-1.86-1.45-4.37-2.18-7.54-2.18-2.54 0-4.99.38-7.35 1.14-2.29.76-4.34 1.61-6.14 2.56-.5-.44-.96-.95-1.4-1.51-.37-.63-.56-1.26-.56-1.89 0-1.64.9-2.9 2.7-3.79 1.67-.88 3.6-1.55 5.77-1.99 2.23-.5 4.59-.76 7.07-.76 5.4 0 9.68 1.23 12.84 3.69s4.74 6.34 4.74 11.64v22.44c0 1.39-.28 2.46-.84 3.22-.5.69-1.27 1.36-2.33 1.99-1.49.82-3.47 1.58-5.95 2.27s-5.27 1.04-8.37 1.04Zm0-6.25c2.61 0 4.74-.25 6.42-.76 1.74-.57 2.98-1.1 3.72-1.61V305.6l-11.54 1.23c-3.23.25-5.61.98-7.16 2.18-1.55 1.2-2.33 2.93-2.33 5.21s.9 4.17 2.7 5.49c1.86 1.33 4.59 1.99 8.19 1.99Zm46.82-40.04c-3.41 0-6.51.41-9.3 1.23-1 .27-1.9.57-2.75.88-.44-1.24-1.9-2.12-2.76-2.22-2.49-.29-4.41.48-4.41.48s-.13.85-.13 2.48v39.19c0 1.2.34 2.08 1.02 2.65.68.5 1.67.76 2.98.76.74 0 1.43-.09 2.05-.28.62-.13 1.09-.25 1.4-.38v-35.41c1.43-.82 3.23-1.51 5.4-2.08 2.17-.63 4.68-.95 7.54-.95.99 0 1.98.06 2.98.19.99.13 1.8.25 2.42.38.31-.38.56-.82.74-1.33.19-.57.28-1.17.28-1.8 0-2.52-2.48-3.79-7.44-3.79Zm28.4 22.06 14.96-13.35c.99-.82 1.74-1.58 2.23-2.27.56-.69.84-1.48.84-2.37 0-1.07-.43-1.93-1.3-2.56-.81-.69-1.95-1.07-3.44-1.14l-20.38 20.1v-34.11c0-1.2-.34-2.05-1.02-2.56-.62-.57-1.58-.85-2.88-.85-.74 0-1.46.09-2.14.28-.62.13-1.09.25-1.4.38v58.41c0 1.2.34 2.08 1.02 2.65.68.5 1.67.76 2.98.76.74 0 1.43-.09 2.05-.28.62-.13 1.09-.25 1.4-.38v-21.2l18.79 19.21c.81.82 1.58 1.48 2.33 1.99.81.5 1.67.76 2.61.76 1.18 0 2.11-.41 2.79-1.23.74-.82 1.18-1.93 1.3-3.31l-20.72-18.93Zm60.35-20.45c-.62-.57-1.61-.85-2.98-.85-.68 0-1.36.09-2.05.28-.62.13-1.09.25-1.4.38v36.07c-.99.57-2.36 1.14-4.09 1.7-1.74.5-3.85.76-6.33.76-3.72 0-6.64-.88-8.75-2.65-2.11-1.77-3.16-4.67-3.16-8.71v-24.33c0-1.26-.34-2.15-1.02-2.65-.62-.57-1.58-.85-2.88-.85-.74 0-1.46.09-2.14.28-.62.13-1.09.25-1.4.38v27.55c0 3.91.74 7.16 2.23 9.75 1.49 2.52 3.66 4.42 6.51 5.68 2.92 1.2 6.42 1.8 10.51 1.8 3.54 0 6.57-.38 9.12-1.14 2.54-.76 4.5-1.55 5.86-2.37 1.3-.76 2.11-1.51 2.42-2.27.37-.82.56-1.89.56-3.22v-32.95c0-1.26-.34-2.15-1.02-2.65Zm45 8.33c-1.92-3.41-4.56-5.9-7.91-7.48-3.29-1.64-6.98-2.46-11.07-2.46-2.98 0-5.65.41-8 1.23-2.29.76-4.28 1.61-5.95 2.56-1.36.82-2.26 1.61-2.7 2.37-.43.76-.65 1.77-.65 3.03v49.99c0 1.2.34 2.08 1.02 2.65s1.67.85 2.98.85c.74 0 1.43-.09 2.05-.28.62-.13 1.09-.25 1.4-.38v-18.45c.91.5 2.02.97 3.35 1.41 2.36.82 4.87 1.23 7.54 1.23 4.09 0 7.72-.85 10.89-2.56 3.16-1.7 5.61-4.26 7.35-7.67 1.8-3.47 2.7-7.79 2.7-12.97s-.99-9.72-2.98-13.07Zm-8.56 26.04c-2.6 2.65-6.08 3.98-10.42 3.98-2.67 0-4.96-.44-6.89-1.33-1.11-.56-2.09-1.18-2.98-1.83v-27.8c1.24-.69 2.64-1.33 4.19-1.89 1.55-.57 3.44-.85 5.68-.85 2.54 0 4.9.54 7.07 1.61 2.23 1.07 4 2.84 5.3 5.3 1.36 2.4 2.05 5.68 2.05 9.85 0 5.93-1.33 10.26-4 12.97Z"/><path class="b" d="M292.75 318.65c-.39.08-5.57 3.58-5.57-2.1v-48.52c0-1.2-.34-2.05-1.02-2.56-.62-.57-1.61-.85-2.98-.85-.68 0-1.36.09-2.05.28-.62.13-1.09.25-1.4.38v51.44c0 2.72.07 9.98 7.9 10.38 3.34.17 5.68-1.03 6.5-3.12.57-1.44-1.06-5.4-1.39-5.34Zm12.77-44.85c1.43 0 2.57-.44 3.44-1.33.87-.95 1.3-2.08 1.3-3.41s-.43-2.43-1.3-3.31c-.87-.95-2.02-1.42-3.44-1.42s-2.51.47-3.44 1.42c-.93.88-1.4 1.99-1.4 3.31s.47 2.46 1.4 3.41c.93.88 2.08 1.33 3.44 1.33Zm-.19 8.62c-.74 0-1.46.09-2.14.28-.62.13-1.09.25-1.4.38v40.62c0 1.2.34 2.08 1.02 2.65.68.5 1.67.76 2.98.76.74 0 1.43-.09 2.05-.28.62-.13 1.09-.25 1.4-.38v-40.52c0-1.26-.34-2.15-1.02-2.65-.62-.57-1.58-.85-2.88-.85Zm45.99 3.21c-3.23-2.65-7.66-3.98-13.3-3.98-3.35 0-6.36.44-9.02 1.33-2.67.82-4.81 1.7-6.42 2.65-1.3.82-2.23 1.67-2.79 2.56-.5.82-.74 1.89-.74 3.22v32.28c0 1.2.34 2.08 1.02 2.65.68.5 1.67.76 2.98.76.74 0 1.43-.09 2.05-.28.62-.13 1.09-.25 1.4-.38v-35.41c1.36-.82 3.01-1.55 4.93-2.18 1.92-.63 4.12-.95 6.61-.95 3.29 0 5.89.82 7.81 2.46 1.98 1.64 2.98 4.23 2.98 7.76v25.56c0 1.2.31 2.08.93 2.65.68.5 1.71.76 3.07.76.68 0 1.33-.09 1.95-.28.68-.13 1.18-.25 1.49-.38v-28.69c0-5.49-1.64-9.53-4.93-12.12Zm38.61 35.51c-.31-.57-.65-1.04-1.02-1.42-.87.5-1.95.95-3.26 1.33-1.3.38-2.48.57-3.54.57-2.48 0-4.43-.5-5.86-1.51-1.43-1.07-2.14-2.87-2.14-5.4v-24.62h13.3c.87 0 1.55-.28 2.05-.85.5-.57.74-1.36.74-2.37 0-.63-.09-1.23-.28-1.8s-.37-.98-.56-1.23H374.1v-10.89c0-1.2-.34-2.05-1.02-2.56-.62-.57-1.58-.85-2.88-.85-.74 0-1.46.09-2.14.28-.62.13-1.09.25-1.4.38v13.63h-5.84c-.97 0-1.75.78-1.75 1.75v2.74c0 .97.78 1.75 1.75 1.75h5.84v25.09c0 4.54 1.33 7.79 4 9.75 2.73 1.96 6.26 2.93 10.61 2.93 2.85 0 5.09-.44 6.7-1.33 1.61-.88 2.42-2.02 2.42-3.41 0-.76-.15-1.42-.47-1.99Z"/></g></g></g></svg>