<svg xmlns="http://www.w3.org/2000/svg" viewBox="0 0 350.23 234.96"><defs><style>.cls-1{fill:#333;}.cls-2{fill:#0071bc;}.cls-3{fill:#484848;}</style></defs><title>logo</title><g id="レイヤー_2" data-name="レイヤー 2"><g id="レイヤー_1-2" data-name="レイヤー 1"><path class="cls-1" d="M32.74,193.83c0-3.74-.08-6.8-.3-9.78h5.75l.3,5.82h.22a12.47,12.47,0,0,1,11.35-6.64,10.68,10.68,0,0,1,10.23,7.24h.15a14.91,14.91,0,0,1,4-4.71,12.33,12.33,0,0,1,8-2.53c4.78,0,11.87,3.13,11.87,15.67v21.28H77.91V199.72c0-6.94-2.54-11.12-7.84-11.12a8.51,8.51,0,0,0-7.77,6,11.12,11.12,0,0,0-.52,3.29v22.32H55.36V198.53c0-5.75-2.54-9.93-7.54-9.93-4.11,0-7.09,3.29-8.14,6.57a9.13,9.13,0,0,0-.52,3.21v21.8H32.74Z"/><path class="cls-1" d="M110.51,220.18l-.53-4.55h-.22A13.48,13.48,0,0,1,98.71,221c-7.32,0-11-5.15-11-10.38,0-8.73,7.77-13.51,21.73-13.43v-.75c0-3-.82-8.36-8.22-8.36a17.92,17.92,0,0,0-9.4,2.69l-1.5-4.33a22.36,22.36,0,0,1,11.87-3.21c11,0,13.74,7.54,13.74,14.78v13.51a50.59,50.59,0,0,0,.6,8.66Zm-1-18.44c-7.17-.15-15.31,1.12-15.31,8.14,0,4.25,2.84,6.27,6.2,6.27a9,9,0,0,0,8.73-6.05,6.69,6.69,0,0,0,.38-2.09Z"/><path class="cls-1" d="M119.92,195.32c0-4.26-.08-7.91-.3-11.27h5.75l.22,7.09h.3c1.64-4.85,5.6-7.91,10-7.91a7.11,7.11,0,0,1,1.87.22v6.2a9.83,9.83,0,0,0-2.24-.23c-4.63,0-7.91,3.51-8.81,8.44a18.33,18.33,0,0,0-.3,3.06v19.26h-6.49Z"/><path class="cls-1" d="M147.54,200.62h.15c.9-1.27,2.16-2.84,3.21-4.11l10.6-12.46h7.91l-14,14.85,15.91,21.28h-8L150.9,202.86l-3.36,3.73v13.59H141v-53h6.5Z"/><path class="cls-1" d="M203.16,210.33c0,3.73.08,7,.3,9.85h-5.82l-.38-5.9h-.14a13.61,13.61,0,0,1-12,6.72c-5.67,0-12.47-3.13-12.47-15.83V184.05h6.57v20c0,6.87,2.09,11.5,8.07,11.5a9.51,9.51,0,0,0,8.66-6,9.7,9.7,0,0,0,.59-3.36V184.05h6.57Z"/><path class="cls-1" d="M207.49,195.84c0-4.63-.14-8.36-.29-11.79h5.89l.3,6.19h.15a14.21,14.21,0,0,1,12.84-7c8.74,0,15.31,7.39,15.31,18.36,0,13-7.92,19.41-16.43,19.41-4.78,0-9-2.09-11.12-5.67H214V235h-6.5Zm6.5,9.63a14.75,14.75,0,0,0,.3,2.69,10.12,10.12,0,0,0,9.85,7.69c7,0,11-5.67,11-14,0-7.24-3.81-13.44-10.75-13.44a10.48,10.48,0,0,0-9.93,8.14,10.37,10.37,0,0,0-.45,2.69Z"/><path class="cls-2" d="M245.42,167.17H252v53h-6.57Z"/><path class="cls-2" d="M263.56,173.89a4.07,4.07,0,0,1-8.13,0,4,4,0,0,1,4.1-4.1A3.89,3.89,0,0,1,263.56,173.89Zm-7.31,46.29V184.05h6.57v36.13Z"/><path class="cls-2" d="M267.07,193.83c0-3.74-.07-6.8-.29-9.78h5.82l.37,6h.15a13.27,13.27,0,0,1,11.95-6.79c5,0,12.76,3,12.76,15.37v21.58h-6.57V199.35c0-5.82-2.16-10.67-8.36-10.67a9.34,9.34,0,0,0-8.81,6.71,9.5,9.5,0,0,0-.45,3.07v21.72h-6.57Z"/><path class="cls-2" d="M308.39,173.67v10.38h9.4v5h-9.4v19.48c0,4.48,1.27,7,4.92,7a14.33,14.33,0,0,0,3.81-.45l.3,4.93a16.1,16.1,0,0,1-5.82.9,9.09,9.09,0,0,1-7.09-2.76c-1.87-1.95-2.54-5.16-2.54-9.41V189.05h-2.6v-5H302v-8.66Z"/><polygon class="cls-3" points="44.69 126.93 0 82.24 44.69 37.55 53.21 46.06 17.04 82.24 53.21 118.41 44.69 126.93"/><polygon class="cls-3" points="305.54 127.69 297.02 119.17 333.2 82.99 297.02 46.82 305.54 38.3 350.24 82.99 305.54 127.69"/><polygon class="cls-2" points="198.03 0 172.58 56.55 159.92 28.45 143.3 61.87 156.74 91.72 172.58 126.89 188.41 91.72 210.22 43.27 229.71 0 200.04 0 198.03 0"/><polygon points="229.71 0 210.22 43.27 235.5 150.66 265.17 150.66 229.71 0"/><polygon points="134.93 43.27 143.3 61.87 159.92 28.45 147.12 0 115.45 0 79.98 150.66 109.65 150.66 134.93 43.27"/></g></g></svg>